<svg viewBox="0 0 10 17" width="10" height="17" fill="none" xmlns="http://www.w3.org/2000/svg"><path d="M4.68 3.3c.9 0 1.63.75 1.63 1.67 0 .93-.73 1.68-1.63 1.68-.9 0-1.63-.75-1.63-1.68 0-.92.73-1.68 1.63-1.68Zm0 5.73a4 4 0 0 0 3.94-4.06 4 4 0 0 0-3.94-4.06 4 4 0 0 0-3.93 4.06 4 4 0 0 0 3.93 4.06Zm1.6 3.32a7.3 7.3 0 0 0 2.28-.98c.53-.35.7-1.09.36-1.64a1.13 1.13 0 0 0-1.6-.38 4.87 4.87 0 0 1-5.29 0 1.13 1.13 0 0 0-1.59.38c-.34.55-.17 1.29.36 1.64a7.3 7.3 0 0 0 2.29.98l-2.2 2.26a1.22 1.22 0 0 0 0 1.69 1.14 1.14 0 0 0 1.63 0l2.16-2.23 2.16 2.23c.45.46 1.18.46 1.63 0 .45-.47.45-1.22 0-1.69l-2.2-2.26Z" fill="#030A1A"/></svg>
