<svg viewBox="0 0 15 15" width="15" height="15" fill="none" xmlns="http://www.w3.org/2000/svg"><path d="M8.85.96c-.44 0-.86.22-1.13.55-.27.33-.42.72-.52 1.14a9.43 9.43 0 0 0-.24 2.1 7.32 7.32 0 0 0-3.33 1.02 2 2 0 0 0-1.28-.5c-.5.01-.98.23-1.33.67-.68.85-.6 2.24.18 3.07-.05.25-.08.51-.08.78 0 2.8 2.86 5.06 6.38 5.06 3.53 0 6.38-2.27 6.38-5.06 0-.27-.03-.53-.08-.78.78-.83.86-2.22.18-3.07a1.7 1.7 0 0 0-1.33-.66 2 2 0 0 0-1.28.5 7.31 7.31 0 0 0-3.31-1.04 8.4 8.4 0 0 1 .18-1.75c.08-.3.17-.52.27-.64s.17-.17.34-.17c.36 0 .4.11.63.4.1.14.23.32.43.49.2.17.5.32.83.32v-1.21c-.09 0-.1 0-.17-.06l-.27-.34c-.25-.33-.73-.82-1.45-.82Zm3.51.11c-.84 0-1.52.77-1.52 1.71 0 .95.68 1.72 1.52 1.72s1.52-.77 1.52-1.72c0-.94-.68-1.7-1.52-1.7Zm0 .61c.54 0 .98.5.98 1.1 0 .61-.44 1.1-.98 1.1s-.98-.49-.98-1.1c0-.6.44-1.1.98-1.1Zm-4.86 4.01c3 0 5.52 1.88 5.52 4.1 0 2.21-2.53 4.09-5.52 4.09-3 0-5.52-1.88-5.52-4.1 0-2.2 2.53-4.09 5.52-4.09Zm-5.13.56c.15 0 .3.04.45.11-.54.46-.97 1-1.26 1.6-.2-.47-.15-1.06.1-1.37a.88.88 0 0 1 .7-.34Zm10.26 0c.28 0 .53.11.71.34.25.31.3.9.1 1.37a4.94 4.94 0 0 0-1.26-1.6c.15-.07.3-.11.45-.11Zm-7.3 1.52c-.53 0-.97.5-.97 1.1 0 .61.44 1.1.98 1.1s.98-.49.98-1.1c0-.6-.44-1.1-.98-1.1Zm4.33 0c-.54 0-.98.5-.98 1.1 0 .61.44 1.1.98 1.1s.98-.49.98-1.1c0-.6-.44-1.1-.98-1.1Zm-4.84 3.75c.34.8 1.4 1.58 2.68 1.58 1.28 0 2.36-.78 2.7-1.58-.62.45-1.6.76-2.7.76s-2.06-.3-2.68-.76Z" fill="#030A1A"/></svg>
