<svg viewBox="0 0 15 15" width="15" height="15" fill="none" xmlns="http://www.w3.org/2000/svg"><path d="M8.72 9.45c.45-.14 1.01.95 1.62 1.36.45.32.8.25.8.25l1.6-.02s.84-.05.45-.72c-.04-.06-.24-.5-1.2-1.4-1-.95-.87-.8.34-2.43.74-1 1.04-1.6.94-1.86-.08-.25-.63-.19-.63-.19l-1.8.01c-.19 0-.34.06-.4.24 0 0-.3.77-.67 1.43-.8 1.38-1.13 1.46-1.26 1.37-.31-.2-.23-.8-.23-1.23 0-1.35.2-1.9-.4-2.05-.2-.05-.34-.08-.84-.08-.65-.01-1.2 0-1.5.15-.2.1-.37.33-.27.34.12.02.39.08.53.27.19.26.18.83.18.83s.11 1.58-.25 1.78c-.24.13-.58-.14-1.3-1.4-.36-.64-.64-1.35-.64-1.35s-.05-.14-.15-.2c-.12-.1-.28-.12-.28-.12l-1.72.01s-.26 0-.35.12c-.08.1 0 .31 0 .31s1.34 3.19 2.86 4.8c1.4 1.47 3 1.37 3 1.37h.71s.22-.03.33-.15c.1-.1.1-.32.1-.32s-.01-.97.43-1.12Z" fill="#030A1A"/></svg>
